Coordinates
version=1
nRows=27
nColumns=38
inDegrees=no

Units are S.I. units (second, meters, Newtons, ...)
If the header above contains a line with 'inDegrees', this indicates whether rotational values are in degrees (yes) or radians (no).

endheader
time	pelvis_tilt	pelvis_list	pelvis_rotation	pelvis_tx	pelvis_ty	pelvis_tz	hip_flexion_r	hip_adduction_r	hip_rotation_r	knee_angle_r	ankle_angle_r	subtalar_angle_r	mtp_angle_r	hip_flexion_l	hip_adduction_l	hip_rotation_l	knee_angle_l	ankle_angle_l	subtalar_angle_l	mtp_angle_l	lumbar_extension	lumbar_bending	lumbar_rotation	arm_flex_r	arm_add_r	arm_rot_r	elbow_flex_r	pro_sup_r	wrist_flex_r	wrist_dev_r	arm_flex_l	arm_add_l	arm_rot_l	elbow_flex_l	pro_sup_l	wrist_flex_l	wrist_dev_l
2.43	-1.00302	1.4154	-0.500246	0.69845	-0.277698	0.940835	0.165189	0.103277	-0.209631	0.447583	-0.229445	0	0	-0.11923	-0.317843	-0.219096	1.11789	-0.400113	0	0	-0.104668	0.1933	0.0173958	-0.192888	-0.322654	0.112518	0.837022	1.5702	0	0	0.0732987	-0.225665	0.502506	0.712953	1.5708	0	0
2.44	-0.96637	1.40997	-0.536159	0.696737	-0.287198	0.942367	0.139761	0.109739	-0.2096	0.433914	-0.226814	0	0	-0.0973179	-0.328977	-0.219541	1.17305	-0.398117	0	0	-0.113628	0.194495	0.022593	-0.19503	-0.324435	0.1098	0.845727	1.56831	0	0	0.0691837	-0.228777	0.510448	0.713774	1.5708	0	0
2.45	-0.924718	1.40462	-0.576434	0.695047	-0.296458	0.944099	0.112593	0.115434	-0.208964	0.417922	-0.225997	0	0	-0.0766262	-0.336552	-0.21629	1.22222	-0.384583	0	0	-0.123468	0.194415	0.0270299	-0.194464	-0.326019	0.109938	0.850874	1.56611	0	0	0.0655702	-0.232202	0.517279	0.714446	1.5708	0	0
2.46	-0.886208	1.40027	-0.613294	0.693369	-0.30552	0.94583	0.0859675	0.120243	-0.207527	0.401139	-0.226256	0	0	-0.0553639	-0.340811	-0.210459	1.26578	-0.360489	0	0	-0.132296	0.193176	0.0300715	-0.191393	-0.327256	0.111936	0.853107	1.5634	0	0	0.061189	-0.235883	0.521453	0.715612	1.5708	0	0
2.47	-0.853026	1.39757	-0.644808	0.691703	-0.314403	0.947475	0.0611477	0.124009	-0.204914	0.384417	-0.227036	0	0	-0.0323534	-0.341143	-0.201698	1.30408	-0.33156	0	0	-0.139289	0.190486	0.031541	-0.185586	-0.328542	0.117018	0.852111	1.56082	0	0	0.0554462	-0.239712	0.521939	0.717528	1.5708	0	0
2.48	-0.82524	1.39982	-0.670143	0.690117	-0.322855	0.949134	0.0419238	0.123737	-0.201472	0.370503	-0.227004	0	0	-0.00580692	-0.321934	-0.164793	1.33366	-0.298288	0	0	-0.142434	0.183821	0.0300077	-0.174831	-0.32856	0.125721	0.844338	1.56026	0	0	0.0495865	-0.242825	0.518808	0.716714	1.5708	0	0
2.49	-0.795511	1.3996	-0.69916	0.688534	-0.331603	0.950536	0.0205522	0.125108	-0.19901	0.357309	-0.225446	0	0	0.0180261	-0.317201	-0.154706	1.36163	-0.277849	0	0	-0.147075	0.178929	0.0310677	-0.167044	-0.330297	0.133096	0.840978	1.56213	0	0	0.0419579	-0.246515	0.51437	0.720187	1.5708	0	0
2.5	-0.770017	1.40113	-0.724692	0.687042	-0.340353	0.951768	0.00150232	0.125043	-0.196795	0.344915	-0.223873	0	0	0.0429624	-0.309862	-0.144508	1.38344	-0.261764	0	0	-0.150019	0.173209	0.0320131	-0.159136	-0.332149	0.139961	0.837882	1.56599	0	0	0.0332507	-0.250187	0.508162	0.724495	1.57034	0	0
2.51	-0.748134	1.40382	-0.747579	0.685576	-0.349219	0.952835	-0.0155989	0.124033	-0.19579	0.333778	-0.222412	0	0	0.0678847	-0.301519	-0.13548	1.3991	-0.249754	0	0	-0.151314	0.166993	0.0332284	-0.151587	-0.333762	0.146019	0.834837	1.5708	0	0	0.0235706	-0.253691	0.500855	0.729041	1.5694	0	0
2.52	-0.723748	1.40675	-0.774683	0.683999	-0.357966	0.953821	-0.0317544	0.122062	-0.194029	0.324476	-0.220623	0	0	0.0916111	-0.293571	-0.130682	1.40915	-0.241209	0	0	-0.152861	0.159988	0.0359744	-0.143528	-0.33598	0.153292	0.832078	1.5708	0	0	0.0140315	-0.257079	0.492891	0.733846	1.56827	0	0
2.53	-0.692703	1.40904	-0.810889	0.682223	-0.3664	0.954776	-0.0478228	0.119334	-0.189623	0.317136	-0.218311	0	0	0.112327	-0.286992	-0.131697	1.4136	-0.23414	0	0	-0.156518	0.152325	0.0409313	-0.134337	-0.338743	0.161238	0.830089	1.5708	0	0	0.00518725	-0.260706	0.484618	0.739398	1.56643	0	0
2.54	-0.661635	1.41122	-0.846236	0.680604	-0.374869	0.95566	-0.0639098	0.116293	-0.187566	0.309542	-0.216166	0	0	0.132132	-0.280386	-0.133636	1.41253	-0.227083	0	0	-0.15989	0.145015	0.0448505	-0.125537	-0.340747	0.167337	0.828653	1.5708	0	0	-0.00344052	-0.264136	0.47649	0.744338	1.56465	0	0
2.55	-0.628968	1.41318	-0.882439	0.679157	-0.383397	0.956473	-0.0804045	0.112876	-0.187436	0.3017	-0.214252	0	0	0.150689	-0.273295	-0.136302	1.40639	-0.220006	0	0	-0.16307	0.137816	0.0483662	-0.117725	-0.341615	0.169732	0.828055	1.5708	0	0	-0.0112593	-0.267236	0.469498	0.74807	1.56291	0	0
2.56	-0.592561	1.41454	-0.92232	0.677796	-0.391944	0.957215	-0.0979917	0.109261	-0.187264	0.29305	-0.21206	0	0	0.167137	-0.266089	-0.140845	1.39519	-0.21294	0	0	-0.166996	0.130539	0.0520347	-0.11069	-0.341249	0.168583	0.827962	1.5708	0	0	-0.0185632	-0.270086	0.462725	0.751507	1.56094	0	0
2.57	-0.558133	1.41548	-0.959483	0.676566	-0.400683	0.957826	-0.116301	0.106247	-0.188192	0.282818	-0.210271	0	0	0.182216	-0.259575	-0.146675	1.37915	-0.205541	0	0	-0.170451	0.123757	0.0554655	-0.104716	-0.340642	0.166344	0.828318	1.5708	0	0	-0.0257204	-0.272653	0.456219	0.754532	1.55937	0	0
2.58	-0.523676	1.41544	-0.996189	0.675428	-0.409396	0.958341	-0.135708	0.103864	-0.18856	0.271028	-0.20911	0	0	0.19533	-0.253454	-0.152916	1.35849	-0.198336	0	0	-0.174751	0.117542	0.0587958	-0.0990909	-0.339427	0.162383	0.82943	1.5708	0	0	-0.0321227	-0.275107	0.450149	0.757289	1.55905	0	0
2.59	-0.490913	1.41528	-1.03141	0.674365	-0.41791	0.958696	-0.15366	0.101292	-0.188422	0.261476	-0.208012	0	0	0.207509	-0.247222	-0.160258	1.33343	-0.192723	0	0	-0.179283	0.111754	0.0628506	-0.0941084	-0.338205	0.157035	0.832085	1.5708	0	0	-0.036869	-0.277322	0.445679	0.758939	1.55867	0	0
2.6	-0.456669	1.41443	-1.06795	0.67342	-0.4262	0.958977	-0.171342	0.0984522	-0.188308	0.253306	-0.206583	0	0	0.217889	-0.240349	-0.16842	1.30394	-0.187975	0	0	-0.184969	0.106211	0.0672167	-0.0893029	-0.336923	0.150602	0.835806	1.5708	0	0	-0.0400989	-0.279418	0.442759	0.759762	1.55819	0	0
2.61	-0.422692	1.41293	-1.10401	0.672591	-0.4344	0.959198	-0.188846	0.0955759	-0.188768	0.246148	-0.204955	0	0	0.226108	-0.233123	-0.177616	1.26977	-0.18407	0	0	-0.191296	0.100851	0.0722296	-0.0847008	-0.335753	0.143931	0.839544	1.5708	0	0	-0.0418707	-0.280922	0.441076	0.759427	1.55881	0	0
2.62	-0.391761	1.41131	-1.13742	0.671773	-0.442628	0.959299	-0.205631	0.0928251	-0.189327	0.239915	-0.20322	0	0	0.23223	-0.226287	-0.188969	1.23062	-0.181816	0	0	-0.197243	0.095698	0.0779693	-0.0804598	-0.334712	0.13759	0.843544	1.5708	0	0	-0.0430614	-0.282077	0.439586	0.758504	1.55941	0	0
2.63	-0.364894	1.40985	-1.1677	0.670895	-0.45095	0.959249	-0.221531	0.0901585	-0.188873	0.234549	-0.201221	0	0	0.236316	-0.219949	-0.202558	1.18624	-0.182307	0	0	-0.20243	0.090784	0.0845522	-0.0766117	-0.333505	0.131348	0.847839	1.5708	0	0	-0.0442069	-0.283128	0.438175	0.757113	1.56067	0	0
2.64	-0.34459	1.40868	-1.18986	0.670286	-0.459094	0.958965	-0.235743	0.0882341	-0.189259	0.230851	-0.198428	0	0	0.240646	-0.212762	-0.212751	1.13803	-0.184667	0	0	-0.206914	0.0870981	0.0894159	-0.0722864	-0.333436	0.127595	0.852653	1.5708	0	0	-0.0448501	-0.283728	0.436858	0.755157	1.56188	0	0
2.65	-0.326909	1.40665	-1.20823	0.669891	-0.467128	0.958576	-0.250248	0.0870681	-0.190109	0.227726	-0.194584	0	0	0.242995	-0.205344	-0.22164	1.08531	-0.190113	0	0	-0.21233	0.0844203	0.0932413	-0.0677492	-0.334158	0.125319	0.858133	1.5708	0	0	-0.0449635	-0.283723	0.435223	0.752884	1.56442	0	0
2.66	-0.317115	1.40548	-1.21815	0.669616	-0.47518	0.957935	-0.263068	0.086854	-0.190815	0.225278	-0.190856	0	0	0.245419	-0.198039	-0.229509	1.02892	-0.196955	0	0	-0.216381	0.0828269	0.0959176	-0.0627236	-0.335377	0.12521	0.863408	1.5708	0	0	-0.0456742	-0.283413	0.43232	0.750848	1.56599	0	0
2.67	-0.313371	1.40529	-1.22171	0.669432	-0.483275	0.957036	-0.274316	0.0872079	-0.191073	0.223196	-0.186541	0	0	0.247629	-0.190625	-0.236967	0.969066	-0.204473	0	0	-0.218939	0.0819355	0.097825	-0.0573136	-0.337044	0.127102	0.868299	1.5708	0	0	-0.04696	-0.28288	0.428672	0.748792	1.56728	0	0
2.68	-0.313474	1.40592	-1.22087	0.669375	-0.491433	0.955907	-0.284402	0.0878805	-0.191225	0.221768	-0.181122	0	0	0.249086	-0.182789	-0.244225	0.905141	-0.213501	0	0	-0.220342	0.0815409	0.0989968	-0.0520323	-0.338869	0.129827	0.873057	1.5708	0	0	-0.0485416	-0.281778	0.424652	0.745895	1.5708	0	0
2.69	-0.32121	1.40839	-1.21149	0.669465	-0.499645	0.954499	-0.292069	0.0893107	-0.191151	0.220901	-0.175411	0	0	0.25194	-0.174836	-0.249294	0.839538	-0.221967	0	0	-0.219373	0.0819848	0.0988823	-0.0466483	-0.340554	0.133139	0.877125	1.5708	0	0	-0.0502543	-0.280437	0.420409	0.742952	1.5708	0	0
